<svg width="1200" height="630" viewBox="0 0 1200 630" fill="none" xmlns="http://www.w3.org/2000/svg">
  <rect width="1200" height="630" fill="#121019"/>
  <path d="M0 0H1200V630H0V0Z" fill="url(#bg)"/>
  <rect x="72" y="66" width="1056" height="498" rx="28" fill="#1B1724" stroke="#3A314B" stroke-width="2"/>
  <rect x="118" y="114" width="96" height="96" rx="18" fill="#7C65C1"/>
  <path d="M186 150h-12.8v13.2H186v72.1h-20.7l-11-52.5c-2.1-10.1-10.8-17.2-20.7-17.2-10 0-18.6 7.1-20.7 17.2l-11 52.5H81.1v-72.1h12.8V150H81.1v-13.2H186V150Z" fill="white" transform="translate(44 14) scale(.7)"/>
  <text x="242" y="154" fill="#F4F1FF" font-family="Inter, Arial, sans-serif" font-size="72" font-weight="850">fcdl</text>
  <text x="244" y="202" fill="#A69BBD" font-family="Inter, Arial, sans-serif" font-size="30" font-weight="500">Farcaster video downloader</text>
  <text x="118" y="322" fill="#F4F1FF" font-family="Inter, Arial, sans-serif" font-size="58" font-weight="800">Paste a cast URL.</text>
  <text x="118" y="391" fill="#F4F1FF" font-family="Inter, Arial, sans-serif" font-size="58" font-weight="800">Download the video.</text>
  <text x="118" y="462" fill="#A69BBD" font-family="Inter, Arial, sans-serif" font-size="26" font-weight="500">HLS and split audio/video handled in-browser.</text>
  <rect x="118" y="498" width="252" height="50" rx="10" fill="#231D2F" stroke="#3A314B"/>
  <circle cx="148" cy="523" r="9" fill="#63D6A4"/>
  <text x="170" y="532" fill="#F4F1FF" font-family="Inter, Arial, sans-serif" font-size="23" font-weight="700">browser-only</text>
  <rect x="770" y="146" width="280" height="338" rx="18" fill="#100D16" stroke="#3A314B"/>
  <path d="M858 246L979 315L858 384V246Z" fill="#9B7CFF"/>
  <rect x="812" y="512" width="276" height="14" rx="7" fill="#3A314B"/>
  <rect x="812" y="512" width="196" height="14" rx="7" fill="url(#bar)"/>
  <defs>
    <radialGradient id="bg" cx="0" cy="0" r="1" gradientUnits="userSpaceOnUse" gradientTransform="translate(233 78) rotate(35) scale(724 509)">
      <stop stop-color="#7C65C1" stop-opacity=".42"/>
      <stop offset=".62" stop-color="#161421" stop-opacity=".62"/>
      <stop offset="1" stop-color="#121019"/>
    </radialGradient>
    <linearGradient id="bar" x1="812" y1="519" x2="1008" y2="519" gradientUnits="userSpaceOnUse">
      <stop stop-color="#9B7CFF"/>
      <stop offset="1" stop-color="#72D9F5"/>
    </linearGradient>
  </defs>
</svg>
